<svg width="24" height="24" viewBox="0 0 24 24" fill="none" xmlns="http://www.w3.org/2000/svg">
<path fill-rule="evenodd" clip-rule="evenodd" d="M7.86953 2.12768C6.24165 2.20113 4.83068 2.59915 3.69136 3.73366C2.54806 4.87413 2.15502 6.29053 2.08139 7.90148C2.03562 8.90696 1.76796 16.5031 2.54409 18.4953C3.06748 19.8392 4.09834 20.8725 5.45458 21.3976C6.08742 21.6437 6.80981 21.8105 7.86953 21.8591C16.7304 22.2601 20.0149 22.0417 21.4 18.4953C21.6458 17.864 21.815 17.1424 21.8617 16.0853C22.2667 7.20177 21.7961 5.27621 20.2518 3.73371C19.0269 2.51185 17.5861 1.68008 7.86946 2.12773L7.86953 2.12768ZM7.95106 20.0724C6.98089 20.0288 6.45452 19.867 6.10327 19.731C5.21967 19.3876 4.55599 18.7265 4.21469 17.8481C3.62363 16.3344 3.81966 9.14518 3.87239 7.98188C3.92414 6.8424 4.15498 5.80119 4.95897 4.99721C5.95401 4.00463 7.2396 3.51827 15.993 3.91332C17.1353 3.96493 18.1791 4.19521 18.9851 4.99721C19.9801 5.98978 20.4736 7.28509 20.0716 16.0049C20.0279 16.9727 19.8657 17.4977 19.7293 17.8481C18.8288 20.1559 16.7572 20.4765 7.95104 20.0725L7.95106 20.0724ZM16.0895 6.69458C16.0895 7.35167 16.6238 7.88567 17.2835 7.88567C17.9432 7.88567 18.4785 7.35167 18.4785 6.69458C18.4785 6.0375 17.9432 5.50349 17.2835 5.50349C16.6238 5.50349 16.0895 6.0375 16.0895 6.69458ZM6.86247 11.9929C6.86247 14.8079 9.15006 17.0898 11.972 17.0898C14.7939 17.0898 17.0815 14.8079 17.0815 11.9929C17.0815 9.178 14.7939 6.89707 11.972 6.89707C9.15006 6.89707 6.86247 9.178 6.86247 11.9929ZM8.65553 11.9929C8.65553 10.1666 10.1401 8.68469 11.972 8.68469C13.8039 8.68469 15.2885 10.1666 15.2885 11.9929C15.2885 13.8203 13.8039 15.3022 11.972 15.3022C10.1401 15.3022 8.65553 13.8203 8.65553 11.9929Z" fill="#353C3E"/>
<mask id="mask0_5_13" style="mask-type:alpha" maskUnits="userSpaceOnUse" x="1" y="2" width="21" height="21">
<path fill-rule="evenodd" clip-rule="evenodd" d="M7.86953 2.12768C6.24165 2.20113 4.83068 2.59915 3.69136 3.73366C2.54806 4.87413 2.15502 6.29053 2.08139 7.90148C2.03562 8.90696 1.76796 16.5031 2.54409 18.4953C3.06748 19.8392 4.09834 20.8725 5.45458 21.3976C6.08742 21.6437 6.80981 21.8105 7.86953 21.8591C16.7304 22.2601 20.0149 22.0417 21.4 18.4953C21.6458 17.864 21.815 17.1424 21.8617 16.0853C22.2667 7.20177 21.7961 5.27621 20.2518 3.73371C19.0269 2.51185 17.5861 1.68008 7.86946 2.12773L7.86953 2.12768ZM7.95106 20.0724C6.98089 20.0288 6.45452 19.867 6.10327 19.731C5.21967 19.3876 4.55599 18.7265 4.21469 17.8481C3.62363 16.3344 3.81966 9.14518 3.87239 7.98188C3.92414 6.8424 4.15498 5.80119 4.95897 4.99721C5.95401 4.00463 7.2396 3.51827 15.993 3.91332C17.1353 3.96493 18.1791 4.19521 18.9851 4.99721C19.9801 5.98978 20.4736 7.28509 20.0716 16.0049C20.0279 16.9727 19.8657 17.4977 19.7293 17.8481C18.8288 20.1559 16.7572 20.4765 7.95104 20.0725L7.95106 20.0724ZM16.0895 6.69458C16.0895 7.35167 16.6238 7.88567 17.2835 7.88567C17.9432 7.88567 18.4785 7.35167 18.4785 6.69458C18.4785 6.0375 17.9432 5.50349 17.2835 5.50349C16.6238 5.50349 16.0895 6.0375 16.0895 6.69458ZM6.86247 11.9929C6.86247 14.8079 9.15006 17.0898 11.972 17.0898C14.7939 17.0898 17.0815 14.8079 17.0815 11.9929C17.0815 9.178 14.7939 6.89707 11.972 6.89707C9.15006 6.89707 6.86247 9.178 6.86247 11.9929ZM8.65553 11.9929C8.65553 10.1666 10.1401 8.68469 11.972 8.68469C13.8039 8.68469 15.2885 10.1666 15.2885 11.9929C15.2885 13.8203 13.8039 15.3022 11.972 15.3022C10.1401 15.3022 8.65553 13.8203 8.65553 11.9929Z" fill="white"/>
</mask>
<g mask="url(#mask0_5_13)">
</g>
</svg>
